<svg width="25" height="20" viewBox="0 0 25 20" fill="none" xmlns="http://www.w3.org/2000/svg">
<path fill-rule="evenodd" clip-rule="evenodd" d="M23.4584 19.3333C23.4584 19.3333 25 19.3333 25 17.7777C25 16.2222 23.4584 11.5555 17.2917 11.5555C11.125 11.5555 9.58337 16.2222 9.58337 17.7777C9.58337 19.3333 11.125 19.3333 11.125 19.3333H23.4584ZM11.159 17.7777H23.4245C23.4317 17.7769 23.4389 17.7759 23.446 17.7746L23.4584 17.7715C23.4553 17.3608 23.2009 16.1693 22.2867 15.096C21.4357 14.0895 19.9403 13.1111 17.2917 13.1111C14.6447 13.1111 13.1492 14.0911 12.2967 15.096C11.3825 16.1693 11.1266 17.3624 11.125 17.7715C11.1363 17.7737 11.1476 17.7758 11.159 17.7777ZM17.2917 8.4444C18.1095 8.4444 18.8937 8.11663 19.472 7.53318C20.0502 6.94973 20.375 6.15841 20.375 5.33329C20.375 4.50817 20.0502 3.71685 19.472 3.1334C18.8937 2.54996 18.1095 2.22218 17.2917 2.22218C16.474 2.22218 15.6897 2.54996 15.1115 3.1334C14.5332 3.71685 14.2084 4.50817 14.2084 5.33329C14.2084 6.15841 14.5332 6.94973 15.1115 7.53318C15.6897 8.11663 16.474 8.4444 17.2917 8.4444ZM21.9167 5.33329C21.9167 5.94613 21.7971 6.55296 21.5646 7.11915C21.3322 7.68533 20.9915 8.19978 20.5621 8.63312C20.1326 9.06646 19.6227 9.41021 19.0616 9.64473C18.5005 9.87925 17.8991 9.99996 17.2917 9.99996C16.6843 9.99996 16.0829 9.87925 15.5218 9.64473C14.9607 9.41021 14.4508 9.06646 14.0213 8.63312C13.5919 8.19978 13.2512 7.68533 13.0188 7.11915C12.7863 6.55296 12.6667 5.94613 12.6667 5.33329C12.6667 4.09562 13.154 2.90863 14.0213 2.03346C14.8887 1.15829 16.0651 0.666626 17.2917 0.666626C18.5183 0.666626 19.6947 1.15829 20.5621 2.03346C21.4294 2.90863 21.9167 4.09562 21.9167 5.33329ZM11.0264 11.9911C10.4097 11.7951 9.77398 11.6663 9.13012 11.6068C8.76834 11.5721 8.40512 11.555 8.04171 11.5555C1.87504 11.5555 0.333374 16.2222 0.333374 17.7777C0.333374 18.8153 0.846749 19.3333 1.87504 19.3333H8.37471C8.14616 18.8477 8.03218 18.3152 8.04171 17.7777C8.04171 16.2066 8.62292 14.6013 9.72212 13.2604C10.0967 12.8031 10.533 12.3753 11.0264 11.9911ZM7.91837 13.1111C5.34687 13.1422 3.88692 14.1066 3.04671 15.096C2.12633 16.1755 1.87504 17.3717 1.87504 17.7777H6.50004C6.50004 16.1522 6.998 14.5328 7.91837 13.1111ZM2.64587 6.11107C2.64587 4.87339 3.13315 3.68641 4.0005 2.81124C4.86786 1.93607 6.04425 1.4444 7.27087 1.4444C8.4975 1.4444 9.67389 1.93607 10.5412 2.81124C11.4086 3.68641 11.8959 4.87339 11.8959 6.11107C11.8959 7.34875 11.4086 8.53573 10.5412 9.4109C9.67389 10.2861 8.4975 10.7777 7.27087 10.7777C6.04425 10.7777 4.86786 10.2861 4.0005 9.4109C3.13315 8.53573 2.64587 7.34875 2.64587 6.11107ZM7.27087 2.99996C6.45312 2.99996 5.66886 3.32774 5.09063 3.91118C4.51239 4.49463 4.18754 5.28595 4.18754 6.11107C4.18754 6.93619 4.51239 7.72751 5.09063 8.31096C5.66886 8.8944 6.45312 9.22218 7.27087 9.22218C8.08862 9.22218 8.87288 8.8944 9.45112 8.31096C10.0294 7.72751 10.3542 6.93619 10.3542 6.11107C10.3542 5.28595 10.0294 4.49463 9.45112 3.91118C8.87288 3.32774 8.08862 2.99996 7.27087 2.99996Z" fill="#23A6F0"/>
</svg>
